<?xml version="1.0" encoding="UTF-8" standalone="no"?>
<!-- Created with Inkscape (http://www.inkscape.org/) -->

<svg
   width="30"
   height="30"
   viewBox="0 0 7.9374998 7.9375"
   version="1.1"
   id="svg1"
   inkscape:version="1.3 (0e150ed6c4, 2023-07-21)"
   sodipodi:docname="gimid.svg"
   xmlns:inkscape="http://www.inkscape.org/namespaces/inkscape"
   xmlns:sodipodi="http://sodipodi.sourceforge.net/DTD/sodipodi-0.dtd"
   xmlns="http://www.w3.org/2000/svg"
   xmlns:svg="http://www.w3.org/2000/svg">
  <sodipodi:namedview
     id="namedview1"
     pagecolor="#ffffff"
     bordercolor="#000000"
     borderopacity="0.25"
     inkscape:showpageshadow="2"
     inkscape:pageopacity="0.0"
     inkscape:pagecheckerboard="0"
     inkscape:deskcolor="#d1d1d1"
     inkscape:document-units="mm"
     inkscape:zoom="8.3597645"
     inkscape:cx="39.654227"
     inkscape:cy="29.007994"
     inkscape:window-width="2560"
     inkscape:window-height="1369"
     inkscape:window-x="-8"
     inkscape:window-y="-8"
     inkscape:window-maximized="1"
     inkscape:current-layer="layer1" />
  <defs
     id="defs1">
    <inkscape:path-effect
       effect="fillet_chamfer"
       id="path-effect15"
       is_visible="true"
       lpeversion="1"
       nodesatellites_param="F,0,0,1,0,1.3229167,0,1 @ F,0,0,1,0,1.3229167,0,1 @ F,0,0,1,0,1.3229167,0,1 @ F,0,0,1,0,1.3229167,0,1 @ F,0,0,1,0,1.3229167,0,1 @ F,0,0,1,0,1.3229167,0,1 @ F,0,0,1,0,1.3229167,0,1"
       radius="5"
       unit="px"
       method="auto"
       mode="F"
       chamfer_steps="1"
       flexible="false"
       use_knot_distance="true"
       apply_no_radius="true"
       apply_with_radius="true"
       only_selected="false"
       hide_knots="false" />
    <inkscape:path-effect
       effect="fillet_chamfer"
       id="path-effect19"
       is_visible="true"
       lpeversion="1"
       nodesatellites_param="F,0,0,1,0,1.3229167,0,1 @ F,0,0,1,0,1.3229167,0,1 @ F,0,0,1,0,1.3229167,0,1 @ F,0,0,1,0,1.3229167,0,1 @ F,0,0,1,0,1.3229167,0,1 @ F,0,0,1,0,1.3229167,0,1 @ F,0,0,1,0,1.3229167,0,1"
       radius="5"
       unit="px"
       method="auto"
       mode="F"
       chamfer_steps="1"
       flexible="false"
       use_knot_distance="true"
       apply_no_radius="true"
       apply_with_radius="true"
       only_selected="false"
       hide_knots="false" />
    <inkscape:path-effect
       effect="fillet_chamfer"
       id="path-effect21"
       is_visible="true"
       lpeversion="1"
       nodesatellites_param="F,0,0,1,0,1.3229167,0,1 @ F,0,0,1,0,1.3229167,0,1 @ F,0,0,1,0,1.3229167,0,1 @ F,0,0,1,0,1.3229167,0,1 @ F,0,0,1,0,1.3229167,0,1 @ F,0,0,1,0,1.3229167,0,1 @ F,0,0,1,0,1.3229167,0,1"
       radius="5"
       unit="px"
       method="auto"
       mode="F"
       chamfer_steps="1"
       flexible="false"
       use_knot_distance="true"
       apply_no_radius="true"
       apply_with_radius="true"
       only_selected="false"
       hide_knots="false" />
    <inkscape:path-effect
       effect="fillet_chamfer"
       id="path-effect23"
       is_visible="true"
       lpeversion="1"
       nodesatellites_param="F,0,0,1,0,1.3229167,0,1 @ F,0,0,1,0,1.3229167,0,1 @ F,0,0,1,0,1.3229167,0,1 @ F,0,0,1,0,1.3229167,0,1 @ F,0,0,1,0,1.3229167,0,1 @ F,0,0,1,0,1.3229167,0,1 @ F,0,0,1,0,1.3229167,0,1"
       radius="5"
       unit="px"
       method="auto"
       mode="F"
       chamfer_steps="1"
       flexible="false"
       use_knot_distance="true"
       apply_no_radius="true"
       apply_with_radius="true"
       only_selected="false"
       hide_knots="false" />
    <inkscape:path-effect
       effect="fillet_chamfer"
       id="path-effect27"
       is_visible="true"
       lpeversion="1"
       nodesatellites_param="F,0,0,1,0,0,0,1 @ F,0,0,1,0,0,0,1 @ F,0,0,1,0,0,0,1 @ F,0,0,1,0,0,0,1 @ F,0,0,1,0,0,0,1 @ F,0,0,1,0,0,0,1"
       radius="0"
       unit="px"
       method="auto"
       mode="F"
       chamfer_steps="1"
       flexible="false"
       use_knot_distance="true"
       apply_no_radius="true"
       apply_with_radius="true"
       only_selected="false"
       hide_knots="false" />
    <inkscape:path-effect
       effect="fillet_chamfer"
       id="path-effect31"
       is_visible="true"
       lpeversion="1"
       nodesatellites_param="F,0,0,1,0,0,0,1 @ F,0,0,1,0,8.0204256,0,1 @ F,0,0,1,0,9.3676464,0,1 @ F,0,0,1,0,0,0,1"
       radius="0"
       unit="px"
       method="auto"
       mode="F"
       chamfer_steps="1"
       flexible="false"
       use_knot_distance="true"
       apply_no_radius="true"
       apply_with_radius="true"
       only_selected="false"
       hide_knots="false" />
  </defs>
  <g
     inkscape:label="Layer 1"
     inkscape:groupmode="layer"
     id="layer1">
    <path
       id="path217"
       d="M 6.0218547 0.27026774 C 5.6949693 0.33459503 5.3769978 0.43769344 5.0534383 0.51728109 C 4.3196497 0.71490737 3.5814805 0.8974091 2.8515055 1.1084595 C 1.8534937 1.4470224 1.0419321 2.2843776 0.73638916 3.293339 C 0.4374764 4.2480625 0.59692409 5.3325863 1.1601359 6.1598307 C 1.6920384 6.9538654 2.5760162 7.501218 3.525883 7.6150391 C 4.5133536 7.7424358 5.5499163 7.403635 6.2662842 6.7107015 C 7.0226935 5.9917323 7.4119396 4.9068022 7.2760417 3.8710815 C 7.2403987 3.5823156 7.1592588 3.303493 7.0791545 3.0261719 C 7.0242167 2.8482954 6.818155 2.7572092 6.6445557 2.8086141 C 6.0005785 2.9835026 5.3471251 3.145942 4.7030721 3.328479 C 4.4760193 3.42013 4.3944563 3.671359 4.2653727 3.8581624 C 4.1736437 3.9858063 4.1533133 4.1731083 4.2612386 4.2979289 C 4.3715366 4.4218393 4.53857 4.4690954 4.672583 4.5614787 C 4.8184589 4.6505642 5.0002538 4.6970393 5.1655762 4.6343424 C 5.4080453 4.5730388 5.6493267 4.5074398 5.8911133 4.4436564 C 5.8412999 5.1338013 5.3930206 5.7770083 4.7609497 6.0595785 C 4.3420211 6.2564269 3.8335621 6.289989 3.4034098 6.1624146 C 2.7655863 5.9792924 2.2353058 5.4556455 2.0634399 4.8121094 C 1.8729725 4.1504755 2.0648461 3.3948523 2.5559163 2.9104167 C 2.8106493 2.6456224 3.150258 2.4643955 3.5015951 2.3786662 C 4.4502051 2.128647 5.3993868 1.8801094 6.3463826 1.6241903 C 6.5537073 1.5500107 6.6498885 1.2899404 6.564974 1.091923 C 6.5017917 0.88255081 6.4689463 0.66194934 6.3804891 0.46147054 C 6.3067549 0.33959244 6.1643287 0.26312183 6.0218547 0.27026774 z M 3.8933024 2.4680664 C 3.8783844 2.4689331 3.8632189 2.4713211 3.8483439 2.4753011 L 3.1775838 2.6551351 C 3.0585863 2.6870166 2.9870362 2.8150452 3.0199707 2.9378052 L 3.0819824 3.1687988 L 3.1806844 3.5372518 C 3.2082344 3.6400561 3.2741615 3.7278757 3.3641357 3.7816813 L 3.7331055 4.0028564 C 3.8405109 4.0670964 3.9802008 4.029507 4.041097 3.9201742 L 4.2503866 3.5444865 C 4.3013805 3.4529096 4.3146158 3.343428 4.2870768 3.2406291 L 4.2503866 3.1031698 L 4.1263631 2.6416992 C 4.0975779 2.5342993 3.997566 2.462812 3.8933024 2.4680664 z M 3.0246216 3.9026042 C 2.9952035 3.9039355 2.9656735 3.9088011 2.9367716 3.9165568 L 2.5099243 4.0307617 L 2.3378418 4.0767537 C 2.2151068 4.1096405 2.1395384 4.2357983 2.1714437 4.3547729 L 2.3512777 5.0260498 C 2.3831716 5.1450266 2.5111911 5.216554 2.6339478 5.1836629 L 3.0375407 5.0756592 L 3.2333944 5.0229492 C 3.3362063 4.9954077 3.4245405 4.929448 3.4783407 4.8394979 L 3.698999 4.4700114 C 3.7632429 4.3626277 3.7256721 4.2234189 3.6163167 4.1625366 L 3.2406291 3.9532471 C 3.1834162 3.9213418 3.119231 3.9041946 3.0540771 3.9026042 C 3.0442997 3.9023342 3.0344276 3.9021604 3.0246216 3.9026042 z M 4.0808879 4.4359049 C 4.0006749 4.433415 3.9217172 4.4749479 3.8798665 4.5501099 L 3.670577 4.9257975 C 3.619583 5.0173794 3.6063257 5.126854 3.6338867 5.2296549 L 3.7480916 5.6565023 L 3.7946004 5.8285848 C 3.8275134 5.9513221 3.9531055 6.0268687 4.0721029 5.9949829 L 4.7433797 5.8151489 C 4.8623447 5.7832643 4.933884 5.6552355 4.9009928 5.5324788 L 4.7929891 5.1288859 L 4.7402791 4.9330322 C 4.7127182 4.8302301 4.6467909 4.7419002 4.5568278 4.6880859 L 4.1878581 4.4674276 C 4.1543281 4.4473166 4.1173538 4.4370319 4.0808879 4.4359049 z " />
  </g>
</svg>
